<svg width="100%" height="100%" viewBox="0 0 2000 67" fill="none" xmlns="http://www.w3.org/2000/svg">
<rect x="-49" width="2098" height="67" fill="black"/>
<path d="M9.49219 40.8008L13.0664 40.4883C13.2357 41.9206 13.6263 43.099 14.2383 44.0234C14.8633 44.9349 15.8268 45.6771 17.1289 46.25C18.431 46.8099 19.8958 47.0898 21.5234 47.0898C22.9688 47.0898 24.2448 46.875 25.3516 46.4453C26.4583 46.0156 27.2786 45.4297 27.8125 44.6875C28.3594 43.9323 28.6328 43.112 28.6328 42.2266C28.6328 41.3281 28.3724 40.5469 27.8516 39.8828C27.3307 39.2057 26.4714 38.6393 25.2734 38.1836C24.5052 37.8841 22.806 37.4219 20.1758 36.7969C17.5456 36.1589 15.7031 35.5599 14.6484 35C13.2812 34.2839 12.2591 33.3984 11.582 32.3438C10.918 31.276 10.5859 30.0846 10.5859 28.7695C10.5859 27.3242 10.9961 25.9766 11.8164 24.7266C12.6367 23.4635 13.8346 22.5065 15.4102 21.8555C16.9857 21.2044 18.737 20.8789 20.6641 20.8789C22.7865 20.8789 24.6549 21.224 26.2695 21.9141C27.8971 22.5911 29.1471 23.5938 30.0195 24.9219C30.8919 26.25 31.3607 27.7539 31.4258 29.4336L27.793 29.707C27.5977 27.8971 26.9336 26.5299 25.8008 25.6055C24.681 24.681 23.0208 24.2188 20.8203 24.2188C18.5286 24.2188 16.8555 24.6419 15.8008 25.4883C14.7591 26.3216 14.2383 27.3307 14.2383 28.5156C14.2383 29.5443 14.6094 30.3906 15.3516 31.0547C16.0807 31.7188 17.9818 32.4023 21.0547 33.1055C24.1406 33.7956 26.2565 34.401 27.4023 34.9219C29.069 35.6901 30.2995 36.6667 31.0938 37.8516C31.888 39.0234 32.2852 40.3776 32.2852 41.9141C32.2852 43.4375 31.849 44.8763 30.9766 46.2305C30.1042 47.5716 28.8477 48.6198 27.207 49.375C25.5794 50.1172 23.7435 50.4883 21.6992 50.4883C19.1081 50.4883 16.9336 50.1107 15.1758 49.3555C13.431 48.6003 12.0573 47.4674 11.0547 45.957C10.0651 44.4336 9.54427 42.7148 9.49219 40.8008ZM51.2109 43.3203L54.8438 43.7695C54.2708 45.8919 53.2096 47.5391 51.6602 48.7109C50.1107 49.8828 48.1315 50.4688 45.7227 50.4688C42.6888 50.4688 40.2799 49.5378 38.4961 47.6758C36.7253 45.8008 35.8398 43.1771 35.8398 39.8047C35.8398 36.3151 36.7383 33.6068 38.5352 31.6797C40.332 29.7526 42.6628 28.7891 45.5273 28.7891C48.3008 28.7891 50.5664 29.7331 52.3242 31.6211C54.082 33.5091 54.9609 36.1654 54.9609 39.5898C54.9609 39.7982 54.9544 40.1107 54.9414 40.5273H39.4727C39.6029 42.806 40.2474 44.5508 41.4062 45.7617C42.5651 46.9727 44.0104 47.5781 45.7422 47.5781C47.0312 47.5781 48.1315 47.2396 49.043 46.5625C49.9544 45.8854 50.6771 44.8047 51.2109 43.3203ZM39.668 37.6367H51.25C51.0938 35.8919 50.651 34.5833 49.9219 33.7109C48.8021 32.3568 47.3503 31.6797 45.5664 31.6797C43.9518 31.6797 42.5911 32.2201 41.4844 33.3008C40.3906 34.3815 39.7852 35.8268 39.668 37.6367ZM59.2383 50V29.2578H62.4023V32.4023C63.2096 30.931 63.9518 29.9609 64.6289 29.4922C65.319 29.0234 66.0742 28.7891 66.8945 28.7891C68.0794 28.7891 69.2839 29.1667 70.5078 29.9219L69.2969 33.1836C68.4375 32.6758 67.5781 32.4219 66.7188 32.4219C65.9505 32.4219 65.2604 32.6562 64.6484 33.125C64.0365 33.5807 63.6003 34.2188 63.3398 35.0391C62.9492 36.2891 62.7539 37.6562 62.7539 39.1406V50H59.2383ZM78.3594 50L70.4688 29.2578H74.1797L78.6328 41.6797C79.1146 43.0208 79.5573 44.4141 79.9609 45.8594C80.2734 44.7656 80.7096 43.4505 81.2695 41.9141L85.8789 29.2578H89.4922L81.6406 50H78.3594ZM106.797 43.3203L110.43 43.7695C109.857 45.8919 108.796 47.5391 107.246 48.7109C105.697 49.8828 103.717 50.4688 101.309 50.4688C98.2747 50.4688 95.8659 49.5378 94.082 47.6758C92.3112 45.8008 91.4258 43.1771 91.4258 39.8047C91.4258 36.3151 92.3242 33.6068 94.1211 31.6797C95.918 29.7526 98.2487 28.7891 101.113 28.7891C103.887 28.7891 106.152 29.7331 107.91 31.6211C109.668 33.5091 110.547 36.1654 110.547 39.5898C110.547 39.7982 110.54 40.1107 110.527 40.5273H95.0586C95.1888 42.806 95.8333 44.5508 96.9922 45.7617C98.151 46.9727 99.5964 47.5781 101.328 47.5781C102.617 47.5781 103.717 47.2396 104.629 46.5625C105.54 45.8854 106.263 44.8047 106.797 43.3203ZM95.2539 37.6367H106.836C106.68 35.8919 106.237 34.5833 105.508 33.7109C104.388 32.3568 102.936 31.6797 101.152 31.6797C99.5378 31.6797 98.1771 32.2201 97.0703 33.3008C95.9766 34.3815 95.3711 35.8268 95.2539 37.6367ZM114.824 50V29.2578H117.988V32.4023C118.796 30.931 119.538 29.9609 120.215 29.4922C120.905 29.0234 121.66 28.7891 122.48 28.7891C123.665 28.7891 124.87 29.1667 126.094 29.9219L124.883 33.1836C124.023 32.6758 123.164 32.4219 122.305 32.4219C121.536 32.4219 120.846 32.6562 120.234 33.125C119.622 33.5807 119.186 34.2188 118.926 35.0391C118.535 36.2891 118.34 37.6562 118.34 39.1406V50H114.824Z" fill="#7812FB"/>
<path d="M128.594 50V21.3672H132.48L147.52 43.8477V21.3672H151.152V50H147.266L132.227 27.5V50H128.594ZM170.625 47.4414C169.323 48.5482 168.066 49.3294 166.855 49.7852C165.658 50.2409 164.368 50.4688 162.988 50.4688C160.71 50.4688 158.958 49.9154 157.734 48.8086C156.51 47.6888 155.898 46.263 155.898 44.5312C155.898 43.5156 156.126 42.5911 156.582 41.7578C157.051 40.9115 157.656 40.2344 158.398 39.7266C159.154 39.2188 160 38.8346 160.938 38.5742C161.628 38.3919 162.669 38.2161 164.062 38.0469C166.901 37.7083 168.991 37.3047 170.332 36.8359C170.345 36.3542 170.352 36.0482 170.352 35.918C170.352 34.4857 170.02 33.4766 169.355 32.8906C168.457 32.0964 167.122 31.6992 165.352 31.6992C163.698 31.6992 162.474 31.9922 161.68 32.5781C160.898 33.151 160.319 34.1732 159.941 35.6445L156.504 35.1758C156.816 33.7044 157.331 32.5195 158.047 31.6211C158.763 30.7096 159.798 30.013 161.152 29.5312C162.507 29.0365 164.076 28.7891 165.859 28.7891C167.63 28.7891 169.069 28.9974 170.176 29.4141C171.283 29.8307 172.096 30.3581 172.617 30.9961C173.138 31.6211 173.503 32.4154 173.711 33.3789C173.828 33.9779 173.887 35.0586 173.887 36.6211V41.3086C173.887 44.5768 173.958 46.6471 174.102 47.5195C174.258 48.3789 174.557 49.2057 175 50H171.328C170.964 49.2708 170.729 48.418 170.625 47.4414ZM170.332 39.5898C169.056 40.1107 167.142 40.5534 164.59 40.918C163.145 41.1263 162.122 41.3607 161.523 41.6211C160.924 41.8815 160.462 42.2656 160.137 42.7734C159.811 43.2682 159.648 43.8216 159.648 44.4336C159.648 45.3711 160 46.1523 160.703 46.7773C161.419 47.4023 162.461 47.7148 163.828 47.7148C165.182 47.7148 166.387 47.4219 167.441 46.8359C168.496 46.237 169.271 45.4232 169.766 44.3945C170.143 43.6003 170.332 42.4284 170.332 40.8789V39.5898ZM179.355 50V29.2578H182.5V32.168C183.151 31.1523 184.017 30.3385 185.098 29.7266C186.178 29.1016 187.409 28.7891 188.789 28.7891C190.326 28.7891 191.582 29.1081 192.559 29.7461C193.548 30.3841 194.245 31.276 194.648 32.4219C196.289 30 198.424 28.7891 201.055 28.7891C203.112 28.7891 204.694 29.362 205.801 30.5078C206.908 31.6406 207.461 33.3919 207.461 35.7617V50H203.965V36.9336C203.965 35.5273 203.848 34.5182 203.613 33.9062C203.392 33.2812 202.982 32.7799 202.383 32.4023C201.784 32.0247 201.081 31.8359 200.273 31.8359C198.815 31.8359 197.604 32.3242 196.641 33.3008C195.677 34.2643 195.195 35.8138 195.195 37.9492V50H191.68V36.5234C191.68 34.9609 191.393 33.7891 190.82 33.0078C190.247 32.2266 189.31 31.8359 188.008 31.8359C187.018 31.8359 186.1 32.0964 185.254 32.6172C184.421 33.138 183.815 33.8997 183.438 34.9023C183.06 35.9049 182.871 37.3503 182.871 39.2383V50H179.355ZM226.875 43.3203L230.508 43.7695C229.935 45.8919 228.874 47.5391 227.324 48.7109C225.775 49.8828 223.796 50.4688 221.387 50.4688C218.353 50.4688 215.944 49.5378 214.16 47.6758C212.389 45.8008 211.504 43.1771 211.504 39.8047C211.504 36.3151 212.402 33.6068 214.199 31.6797C215.996 29.7526 218.327 28.7891 221.191 28.7891C223.965 28.7891 226.23 29.7331 227.988 31.6211C229.746 33.5091 230.625 36.1654 230.625 39.5898C230.625 39.7982 230.618 40.1107 230.605 40.5273H215.137C215.267 42.806 215.911 44.5508 217.07 45.7617C218.229 46.9727 219.674 47.5781 221.406 47.5781C222.695 47.5781 223.796 47.2396 224.707 46.5625C225.618 45.8854 226.341 44.8047 226.875 43.3203ZM215.332 37.6367H226.914C226.758 35.8919 226.315 34.5833 225.586 33.7109C224.466 32.3568 223.014 31.6797 221.23 31.6797C219.616 31.6797 218.255 32.2201 217.148 33.3008C216.055 34.3815 215.449 35.8268 215.332 37.6367Z" fill="#BC3308"/>
<path d="M565.375 43.4648C565.375 44.3112 565.349 45.0794 565.297 45.7695C565.245 46.4466 565.147 47.0716 565.004 47.6445C564.874 48.2044 564.73 48.6992 564.574 49.1289C564.418 49.5586 564.197 49.9427 563.91 50.2812C563.624 50.6068 563.337 50.8867 563.051 51.1211C562.777 51.3555 562.413 51.5573 561.957 51.7266C561.514 51.8828 561.085 52.0065 560.668 52.0977C560.251 52.2018 559.73 52.2799 559.105 52.332C558.48 52.3841 557.882 52.4167 557.309 52.4297C556.749 52.4557 556.059 52.4688 555.238 52.4688C553.689 52.4688 552.387 52.4232 551.332 52.332C550.29 52.2409 549.398 52.0456 548.656 51.7461C547.927 51.4466 547.361 51.1406 546.957 50.8281C546.553 50.5026 546.234 49.9948 546 49.3047C545.766 48.6016 545.609 47.931 545.531 47.293C545.466 46.6549 545.408 45.75 545.355 44.5781L548.969 43.9922C549.008 44.2786 549.047 44.6823 549.086 45.2031C549.164 46.0104 549.236 46.5833 549.301 46.9219C549.379 47.2474 549.522 47.612 549.73 48.0156C549.939 48.4193 550.264 48.6862 550.707 48.8164C551.15 48.9336 551.729 49.0378 552.445 49.1289C553.161 49.2201 554.118 49.2656 555.316 49.2656C556.306 49.2656 557.12 49.2396 557.758 49.1875C558.396 49.1354 558.956 49.0312 559.438 48.875C559.919 48.7057 560.284 48.5169 560.531 48.3086C560.779 48.1003 560.974 47.7812 561.117 47.3516C561.273 46.9089 561.371 46.4531 561.41 45.9844C561.449 45.5156 561.462 44.8906 561.449 44.1094C561.436 42.3906 561.339 41.2057 561.156 40.5547C560.987 39.8906 560.616 39.5 560.043 39.3828L550.316 37.6836C548.624 37.3971 547.445 36.7526 546.781 35.75C546.117 34.7474 545.766 33.1263 545.727 30.8867C545.727 29.6888 545.785 28.6667 545.902 27.8203C546.033 26.9609 546.247 26.2122 546.547 25.5742C546.859 24.9232 547.237 24.4023 547.68 24.0117C548.135 23.6211 548.728 23.3086 549.457 23.0742C550.199 22.8268 551.007 22.6641 551.879 22.5859C552.764 22.4948 553.845 22.4492 555.121 22.4492C556.163 22.4492 557.055 22.4753 557.797 22.5273C558.552 22.5664 559.281 22.6445 559.984 22.7617C560.701 22.8789 561.293 23.0417 561.762 23.25C562.23 23.4583 562.66 23.7318 563.051 24.0703C563.454 24.3958 563.767 24.7995 563.988 25.2812C564.21 25.75 564.379 26.3034 564.496 26.9414C564.613 27.5794 564.672 28.3151 564.672 29.1484L561.195 29.9492C561.065 28.5169 560.98 27.7031 560.941 27.5078C560.785 26.8438 560.414 26.3945 559.828 26.1602C559.177 25.8867 557.816 25.75 555.746 25.75C554.613 25.75 553.676 25.7826 552.934 25.8477C552.204 25.9128 551.605 26.0104 551.137 26.1406C550.668 26.2578 550.316 26.4401 550.082 26.6875C549.861 26.9349 549.711 27.2018 549.633 27.4883C549.555 27.7617 549.516 28.1263 549.516 28.582V31.9609C549.516 33.1849 550.049 33.888 551.117 34.0703L558.109 35.2617C558.76 35.3659 559.281 35.457 559.672 35.5352C560.062 35.6133 560.512 35.7174 561.02 35.8477C561.527 35.9779 561.924 36.1146 562.211 36.2578C562.497 36.401 562.816 36.5833 563.168 36.8047C563.52 37.026 563.793 37.2734 563.988 37.5469C564.184 37.8203 564.379 38.1458 564.574 38.5234C564.783 38.901 564.932 39.3307 565.023 39.8125C565.128 40.2812 565.212 40.8216 565.277 41.4336C565.342 42.0326 565.375 42.7096 565.375 43.4648ZM587.328 40.9844C585.766 41.1406 584.796 41.2318 584.418 41.2578H573.773C573.786 43.1458 573.839 45.2161 573.93 47.4688C573.995 48.3411 574.366 48.9206 575.043 49.207C575.733 49.4805 577.068 49.6172 579.047 49.6172C579.789 49.6172 580.427 49.5911 580.961 49.5391C581.495 49.474 581.924 49.3698 582.25 49.2266C582.589 49.0703 582.849 48.9271 583.031 48.7969C583.227 48.6536 583.37 48.4388 583.461 48.1523C583.552 47.8529 583.611 47.6055 583.637 47.4102C583.663 47.2018 583.689 46.8958 583.715 46.4922C583.741 46.0755 583.773 45.737 583.812 45.4766L586.801 46.0234C586.775 46.9349 586.71 47.7096 586.605 48.3477C586.501 48.9727 586.326 49.526 586.078 50.0078C585.831 50.4896 585.538 50.8737 585.199 51.1602C584.861 51.4336 584.405 51.6615 583.832 51.8438C583.259 52.026 582.628 52.1432 581.938 52.1953C581.247 52.2604 580.395 52.293 579.379 52.293C578.077 52.293 576.944 52.2148 575.98 52.0586C575.017 51.9154 574.19 51.7331 573.5 51.5117C572.823 51.2904 572.263 50.9323 571.82 50.4375C571.378 49.9297 571.026 49.4479 570.766 48.9922C570.518 48.5365 570.336 47.8659 570.219 46.9805C570.102 46.0951 570.023 45.2943 569.984 44.5781C569.958 43.849 569.945 42.8464 569.945 41.5703C569.945 39.7734 569.965 38.3737 570.004 37.3711C570.056 36.3685 570.186 35.3659 570.395 34.3633C570.603 33.3477 570.883 32.612 571.234 32.1562C571.586 31.7005 572.107 31.2773 572.797 30.8867C573.487 30.4961 574.301 30.2487 575.238 30.1445C576.176 30.0273 577.367 29.9688 578.812 29.9688C579.815 29.9688 580.681 30.0013 581.41 30.0664C582.139 30.1185 582.81 30.2357 583.422 30.418C584.034 30.6003 584.535 30.8086 584.926 31.043C585.329 31.2773 585.681 31.6224 585.98 32.0781C586.293 32.5339 586.527 33.0091 586.684 33.5039C586.853 33.9857 586.99 34.6302 587.094 35.4375C587.198 36.2448 587.263 37.0651 587.289 37.8984C587.315 38.7188 587.328 39.7474 587.328 40.9844ZM573.793 39.207H583.48C583.454 37.5404 583.389 36.0169 583.285 34.6367C583.233 33.8424 582.888 33.3151 582.25 33.0547C581.625 32.7812 580.473 32.6445 578.793 32.6445C576.931 32.6445 575.753 32.7487 575.258 32.957C575.036 33.0221 574.841 33.1393 574.672 33.3086C574.516 33.4648 574.385 33.6927 574.281 33.9922C574.177 34.2917 574.092 34.5716 574.027 34.832C573.975 35.0924 573.93 35.457 573.891 35.9258C573.865 36.3815 573.845 36.7396 573.832 37C573.819 37.2474 573.806 37.6315 573.793 38.1523C573.793 38.6732 573.793 39.0247 573.793 39.207ZM607.953 52H604.906L604.281 48.9336C603.891 50.2747 603.181 51.1732 602.152 51.6289C601.137 52.0716 599.646 52.293 597.68 52.293C596.378 52.293 595.31 52.1693 594.477 51.9219C593.643 51.6615 592.979 51.2318 592.484 50.6328C591.99 50.0339 591.645 49.3047 591.449 48.4453C591.267 47.5729 591.176 46.4531 591.176 45.0859C591.176 44.474 591.28 43.9271 591.488 43.4453C591.71 42.9635 592.003 42.5534 592.367 42.2148C592.745 41.8763 593.24 41.5833 593.852 41.3359C594.477 41.0885 595.121 40.8932 595.785 40.75C596.449 40.6068 597.25 40.4961 598.188 40.418C599.138 40.3268 600.062 40.2682 600.961 40.2422C601.859 40.2161 602.908 40.2031 604.105 40.2031V34.4023C604.105 33.7383 603.793 33.2826 603.168 33.0352C602.543 32.7747 601.43 32.6445 599.828 32.6445C598.708 32.6445 597.868 32.6706 597.309 32.7227C596.749 32.7747 596.319 32.931 596.02 33.1914C595.733 33.4388 595.564 33.6862 595.512 33.9336C595.473 34.181 595.447 34.6432 595.434 35.3203C595.421 35.5677 595.414 35.763 595.414 35.9062L592.426 35.7891C592.4 35.5807 592.387 35.2747 592.387 34.8711C592.387 33.9987 592.51 33.263 592.758 32.6641C593.018 32.0521 593.35 31.5768 593.754 31.2383C594.158 30.8867 594.711 30.6133 595.414 30.418C596.117 30.2227 596.814 30.099 597.504 30.0469C598.194 29.9948 599.053 29.9688 600.082 29.9688C601.645 29.9688 602.914 30.0924 603.891 30.3398C604.867 30.5742 605.668 31.0039 606.293 31.6289C606.918 32.2539 607.348 33.0547 607.582 34.0312C607.829 34.9948 607.953 36.2578 607.953 37.8203V52ZM604.105 45.8672V42.5273C601.54 42.5273 599.568 42.625 598.188 42.8203C596.807 43.0156 595.883 43.2891 595.414 43.6406C594.958 43.9792 594.73 44.4609 594.73 45.0859C594.73 45.112 594.73 45.151 594.73 45.2031C594.73 47.1823 594.893 48.4128 595.219 48.8945C595.544 49.3763 596.54 49.6172 598.207 49.6172C599.626 49.6172 600.779 49.4479 601.664 49.1094C602.549 48.7708 603.161 48.3411 603.5 47.8203C603.852 47.2865 604.053 46.6354 604.105 45.8672ZM623.441 30.0859L623.285 33.3477C622.79 33.2826 622.322 33.25 621.879 33.25C620.954 33.25 620.206 33.3411 619.633 33.5234C619.06 33.7057 618.624 34.0182 618.324 34.4609C618.038 34.9036 617.842 35.4115 617.738 35.9844C617.647 36.5443 617.602 37.2995 617.602 38.25C617.602 38.7839 617.621 39.5651 617.66 40.5938C617.712 41.6224 617.738 42.3581 617.738 42.8008V52H613.891V30.5742H617.387L617.777 32.9766C618.181 32.0391 618.793 31.3164 619.613 30.8086C620.434 30.2878 621.417 30.0273 622.562 30.0273C622.849 30.0273 623.142 30.0469 623.441 30.0859ZM643.754 36.7461L640.59 37.2734L640.18 34.5586C640.076 33.9336 639.952 33.5365 639.809 33.3672C639.47 32.9766 638.533 32.7552 636.996 32.7031C636.632 32.6901 636.228 32.6836 635.785 32.6836C634.014 32.6836 632.855 32.7812 632.309 32.9766C631.71 33.0807 631.273 33.6732 631 34.7539C630.727 35.8346 630.59 37.1562 630.59 38.7188L630.609 42.0977C630.609 42.5664 630.609 43.2109 630.609 44.0312C630.609 45.099 630.609 45.8542 630.609 46.2969C630.609 46.7266 630.668 47.2214 630.785 47.7812C630.902 48.3281 631.033 48.6732 631.176 48.8164C631.332 48.9466 631.618 49.1029 632.035 49.2852C632.452 49.4674 632.895 49.5651 633.363 49.5781C633.845 49.5911 634.535 49.5977 635.434 49.5977C636.137 49.5977 636.742 49.5716 637.25 49.5195C637.771 49.4674 638.207 49.4089 638.559 49.3438C638.923 49.2656 639.216 49.1419 639.438 48.9727C639.672 48.7904 639.848 48.6276 639.965 48.4844C640.095 48.3411 640.193 48.1198 640.258 47.8203C640.323 47.5078 640.362 47.2409 640.375 47.0195C640.401 46.7982 640.427 46.4661 640.453 46.0234C640.479 45.5677 640.512 45.1836 640.551 44.8711L643.754 45.418C643.676 46.4336 643.585 47.2474 643.48 47.8594C643.389 48.4714 643.227 49.0638 642.992 49.6367C642.771 50.2096 642.484 50.6458 642.133 50.9453C641.794 51.2318 641.319 51.4922 640.707 51.7266C640.108 51.9609 639.405 52.1107 638.598 52.1758C637.803 52.2539 636.807 52.293 635.609 52.293C634.75 52.293 633.975 52.2669 633.285 52.2148C632.608 52.1628 631.99 52.0586 631.43 51.9023C630.87 51.7331 630.382 51.5768 629.965 51.4336C629.548 51.2773 629.177 51.0104 628.852 50.6328C628.539 50.2552 628.272 49.9297 628.051 49.6562C627.842 49.3828 627.667 48.9401 627.523 48.3281C627.38 47.7161 627.27 47.1953 627.191 46.7656C627.113 46.3359 627.055 45.6849 627.016 44.8125C626.977 43.9271 626.951 43.1784 626.938 42.5664C626.938 41.9544 626.938 41.069 626.938 39.9102C626.938 38.8685 626.957 37.9701 626.996 37.2148C627.035 36.4466 627.113 35.7174 627.23 35.0273C627.348 34.3242 627.497 33.7448 627.68 33.2891C627.875 32.8203 628.129 32.3841 628.441 31.9805C628.767 31.5768 629.132 31.2578 629.535 31.0234C629.952 30.7891 630.46 30.5872 631.059 30.418C631.671 30.2487 632.335 30.1315 633.051 30.0664C633.78 30.0013 634.626 29.9688 635.59 29.9688C636.827 29.9688 637.862 30.0339 638.695 30.1641C639.542 30.2812 640.29 30.4831 640.941 30.7695C641.592 31.056 642.107 31.4661 642.484 32C642.862 32.5208 643.155 33.1654 643.363 33.9336C643.572 34.6888 643.702 35.6263 643.754 36.7461ZM666 52H662.152V38.9922C662.152 38.5234 662.159 37.931 662.172 37.2148C662.198 36.4987 662.211 36.0234 662.211 35.7891C662.211 35.138 662.159 34.6367 662.055 34.2852C661.964 33.9336 661.742 33.6211 661.391 33.3477C661.039 33.0742 660.544 32.8919 659.906 32.8008C659.268 32.7096 658.396 32.6641 657.289 32.6641C656.768 32.6641 656.273 32.6966 655.805 32.7617C655.349 32.8138 654.913 32.9115 654.496 33.0547C654.079 33.1849 653.741 33.3737 653.48 33.6211C653.22 33.8685 653.077 34.1615 653.051 34.5C652.868 36.8438 652.777 38.9531 652.777 40.8281V52H648.91V22.9766L652.777 22.6641V32.1953C653.715 30.7109 655.655 29.9688 658.598 29.9688C659.366 29.9818 660.056 30.0339 660.668 30.125C661.293 30.2031 661.846 30.3008 662.328 30.418C662.81 30.5352 663.233 30.6979 663.598 30.9062C663.962 31.1146 664.275 31.3294 664.535 31.5508C664.796 31.7721 665.017 32.0521 665.199 32.3906C665.382 32.7161 665.525 33.0352 665.629 33.3477C665.733 33.6602 665.811 34.0443 665.863 34.5C665.928 34.9557 665.967 35.3854 665.98 35.7891C666.007 36.1797 666.02 36.6615 666.02 37.2344C666.02 37.4818 666.013 37.8854 666 38.4453C666 38.9922 666 39.4154 666 39.7148V52Z" fill="white"/>
<path d="M743.273 52H739.25L737.043 44.5586H726.281L724.152 52H720.344L729.27 22.8984H734.562L743.273 52ZM736.223 41.7461L733.762 33.0156L731.73 25.8672C730.975 28.5625 730.311 30.8802 729.738 32.8203L727.121 41.7461H736.223ZM764.836 40.0664C764.836 41.056 764.829 41.8763 764.816 42.5273C764.803 43.1784 764.777 43.888 764.738 44.6562C764.699 45.4245 764.641 46.056 764.562 46.5508C764.484 47.0326 764.38 47.5534 764.25 48.1133C764.12 48.6602 763.957 49.1029 763.762 49.4414C763.566 49.7799 763.332 50.125 763.059 50.4766C762.785 50.8281 762.466 51.1016 762.102 51.2969C761.737 51.4922 761.32 51.6745 760.852 51.8438C760.383 52.013 759.855 52.1302 759.27 52.1953C758.684 52.2604 758.033 52.293 757.316 52.293C753.905 52.293 751.828 51.2969 751.086 49.3047L750.734 52H747.219V22.332L751.066 22.0195V32.9375C751.496 31.9219 752.186 31.1732 753.137 30.6914C754.087 30.2096 755.376 29.9688 757.004 29.9688C757.889 29.9688 758.684 30.0273 759.387 30.1445C760.103 30.2487 760.721 30.4245 761.242 30.6719C761.776 30.9193 762.238 31.1992 762.629 31.5117C763.02 31.8112 763.345 32.2018 763.605 32.6836C763.866 33.1523 764.074 33.6276 764.23 34.1094C764.4 34.5911 764.53 35.1771 764.621 35.8672C764.712 36.5443 764.771 37.1953 764.797 37.8203C764.823 38.4453 764.836 39.194 764.836 40.0664ZM760.988 37.1367C760.988 36.5768 760.982 36.1602 760.969 35.8867C760.969 35.6003 760.943 35.2682 760.891 34.8906C760.852 34.513 760.793 34.2461 760.715 34.0898C760.637 33.9336 760.513 33.7513 760.344 33.543C760.188 33.3216 759.992 33.1719 759.758 33.0938C759.536 33.0156 759.243 32.9375 758.879 32.8594C758.527 32.7682 758.13 32.7161 757.688 32.7031C757.245 32.6771 756.711 32.6641 756.086 32.6641C754.771 32.6641 753.742 32.7617 753 32.957C752.271 33.1393 751.743 33.4518 751.418 33.8945C751.184 34.3372 751.066 35.3398 751.066 36.9023V46.7461C751.066 47.8138 751.444 48.5625 752.199 48.9922C752.954 49.4089 754.257 49.6172 756.105 49.6172C757.941 49.6172 759.204 49.4544 759.895 49.1289C760.637 48.8685 761.008 47.5534 761.008 45.1836L760.988 37.1367ZM778.742 49.5977C780.591 49.5586 781.874 49.4219 782.59 49.1875C783.319 48.9531 783.684 48.4909 783.684 47.8008C783.827 45.9388 783.898 43.7839 783.898 41.3359C783.898 40.5286 783.866 39.3763 783.801 37.8789C783.736 36.3685 783.703 35.2487 783.703 34.5195C783.703 34.2982 783.664 34.0964 783.586 33.9141C783.521 33.7318 783.404 33.582 783.234 33.4648C783.078 33.3346 782.915 33.224 782.746 33.1328C782.59 33.0417 782.362 32.9701 782.062 32.918C781.776 32.8659 781.529 32.8203 781.32 32.7812C781.125 32.7422 780.839 32.7161 780.461 32.7031C780.096 32.6901 779.81 32.6836 779.602 32.6836C779.406 32.6836 779.113 32.6836 778.723 32.6836C778.332 32.6836 778.033 32.6836 777.824 32.6836C777.629 32.6836 777.342 32.6901 776.965 32.7031C776.6 32.7161 776.314 32.7422 776.105 32.7812C775.91 32.8203 775.663 32.8659 775.363 32.918C775.077 32.9701 774.849 33.0417 774.68 33.1328C774.523 33.224 774.361 33.3346 774.191 33.4648C774.035 33.582 773.918 33.7318 773.84 33.9141C773.775 34.0964 773.742 34.2982 773.742 34.5195C773.742 35.2487 773.71 36.3685 773.645 37.8789C773.579 39.3763 773.547 40.5286 773.547 41.3359C773.547 43.7839 773.618 45.9388 773.762 47.8008C773.762 48.4909 774.139 48.9661 774.895 49.2266C775.663 49.474 776.945 49.5977 778.742 49.5977ZM778.703 52.293C777.258 52.293 776.053 52.2344 775.09 52.1172C774.126 52 773.293 51.7461 772.59 51.3555C771.9 50.9518 771.372 50.5286 771.008 50.0859C770.643 49.6302 770.357 48.9206 770.148 47.957C769.94 46.9805 769.81 46.0169 769.758 45.0664C769.719 44.1159 769.699 42.7943 769.699 41.1016C769.699 39.8385 769.712 38.7839 769.738 37.9375C769.777 37.0911 769.855 36.2643 769.973 35.457C770.09 34.6367 770.233 33.9792 770.402 33.4844C770.585 32.9766 770.839 32.5013 771.164 32.0586C771.503 31.6029 771.88 31.2578 772.297 31.0234C772.714 30.7891 773.241 30.5872 773.879 30.418C774.53 30.2357 775.233 30.1185 775.988 30.0664C776.757 30.0013 777.668 29.9688 778.723 29.9688C779.777 29.9688 780.682 30.0013 781.438 30.0664C782.206 30.1185 782.909 30.2357 783.547 30.418C784.198 30.5872 784.732 30.7891 785.148 31.0234C785.565 31.2578 785.936 31.6029 786.262 32.0586C786.6 32.5013 786.854 32.9766 787.023 33.4844C787.206 33.9792 787.355 34.6367 787.473 35.457C787.59 36.2643 787.661 37.0911 787.688 37.9375C787.727 38.7839 787.746 39.8385 787.746 41.1016C787.746 42.7943 787.72 44.1159 787.668 45.0664C787.629 46.0169 787.505 46.9805 787.297 47.957C787.089 48.9206 786.796 49.6302 786.418 50.0859C786.053 50.5417 785.52 50.9648 784.816 51.3555C784.126 51.7461 783.299 52 782.336 52.1172C781.372 52.2344 780.161 52.293 778.703 52.293ZM810.09 52.0195H806.535L806.184 49.2656C805.845 50.2943 805.103 51.056 803.957 51.5508C802.824 52.0456 801.438 52.293 799.797 52.293C798.677 52.293 797.733 52.1823 796.965 51.9609C796.197 51.7396 795.552 51.4206 795.031 51.0039C794.523 50.5742 794.126 49.9818 793.84 49.2266C793.566 48.4583 793.371 47.6055 793.254 46.668C793.15 45.7174 793.098 44.5391 793.098 43.1328V30.5742H796.945V43.0156C796.945 43.3021 796.939 43.6927 796.926 44.1875C796.926 44.6693 796.926 45.0078 796.926 45.2031C796.926 45.8932 796.939 46.4336 796.965 46.8242C796.991 47.2148 797.056 47.599 797.16 47.9766C797.277 48.3542 797.427 48.6341 797.609 48.8164C797.792 48.9857 798.065 49.1419 798.43 49.2852C798.794 49.4284 799.211 49.5195 799.68 49.5586C800.161 49.5977 800.773 49.6172 801.516 49.6172C802.349 49.6172 803.059 49.5586 803.645 49.4414C804.23 49.3242 804.693 49.1745 805.031 48.9922C805.37 48.7969 805.624 48.5365 805.793 48.2109C805.975 47.8854 806.092 47.5664 806.145 47.2539C806.197 46.9414 806.223 46.5508 806.223 46.082C806.223 45.9258 806.216 45.6719 806.203 45.3203C806.203 44.9688 806.203 44.7018 806.203 44.5195V30.5742H810.09V52.0195ZM824.562 49.2852L824.484 52.0195C823.391 52.2018 822.401 52.293 821.516 52.293C820.565 52.293 819.777 52.1888 819.152 51.9805C818.54 51.7721 818.078 51.4401 817.766 50.9844C817.453 50.5286 817.238 50.0273 817.121 49.4805C817.004 48.9206 816.945 48.2109 816.945 47.3516V32.7617H814.035V30.5742H816.945V24.4805L820.773 24.168V30.5742H824.719V32.7617H820.773V46.043C820.773 47.4492 820.839 48.3607 820.969 48.7773C821.112 49.194 821.49 49.4023 822.102 49.4023C822.701 49.4023 823.521 49.3633 824.562 49.2852Z" fill="white"/>
<path d="M896.566 34.8906C896.566 36.6745 896.553 38.1458 896.527 39.3047C896.514 40.4505 896.456 41.6289 896.352 42.8398C896.247 44.0378 896.137 44.9883 896.02 45.6914C895.902 46.3945 895.681 47.1172 895.355 47.8594C895.043 48.5885 894.73 49.1354 894.418 49.5C894.118 49.8516 893.656 50.2161 893.031 50.5938C892.406 50.9714 891.794 51.2253 891.195 51.3555C890.596 51.4857 889.783 51.6159 888.754 51.7461C887.738 51.8763 886.736 51.9544 885.746 51.9805C884.77 51.9935 883.526 52 882.016 52H874.945V22.8984H885.023C886.664 22.8984 888.051 22.9701 889.184 23.1133C890.316 23.2435 891.326 23.4974 892.211 23.875C893.109 24.2396 893.826 24.7018 894.359 25.2617C894.893 25.8216 895.329 26.5703 895.668 27.5078C896.02 28.4323 896.254 29.474 896.371 30.6328C896.501 31.7917 896.566 33.2109 896.566 34.8906ZM892.641 34.9492C892.641 33.7513 892.634 32.8919 892.621 32.3711C892.621 31.8372 892.576 31.1732 892.484 30.3789C892.406 29.5846 892.289 29.0443 892.133 28.7578C891.99 28.4583 891.755 28.0807 891.43 27.625C891.104 27.1693 890.72 26.8828 890.277 26.7656C889.848 26.6354 889.275 26.4792 888.559 26.2969C887.855 26.1016 887.068 25.9909 886.195 25.9648C885.323 25.9258 884.262 25.9062 883.012 25.9062H878.91V49.0117H883.598C884.717 49.0117 885.59 49.0052 886.215 48.9922C886.84 48.9661 887.517 48.9076 888.246 48.8164C888.975 48.7253 889.509 48.6081 889.848 48.4648C890.199 48.3086 890.577 48.0742 890.98 47.7617C891.384 47.4362 891.664 47.0716 891.82 46.668C891.977 46.2513 892.133 45.7109 892.289 45.0469C892.445 44.3698 892.543 43.6276 892.582 42.8203C892.621 42.013 892.641 41.0365 892.641 39.8906V34.9492ZM906.195 52H902.348V30.5742H906.195V52ZM906.195 22.293V25.6719H902.348V22.293H906.195ZM927.895 46.0625C927.895 47.3125 927.758 48.3411 927.484 49.1484C927.211 49.9427 926.755 50.5742 926.117 51.043C925.492 51.5117 924.724 51.8372 923.812 52.0195C922.914 52.2018 921.775 52.293 920.395 52.293C919.587 52.293 918.936 52.2865 918.441 52.2734C917.96 52.2604 917.4 52.2279 916.762 52.1758C916.124 52.1237 915.616 52.0456 915.238 51.9414C914.861 51.8242 914.451 51.6745 914.008 51.4922C913.578 51.2969 913.24 51.056 912.992 50.7695C912.745 50.4701 912.51 50.1185 912.289 49.7148C912.068 49.3112 911.911 48.8359 911.82 48.2891C911.729 47.7292 911.684 47.0977 911.684 46.3945L914.711 45.6133C914.828 47.0977 914.965 48.0352 915.121 48.4258C915.355 48.9596 915.844 49.2982 916.586 49.4414C917.146 49.5586 918.324 49.6172 920.121 49.6172C921.202 49.6172 922.003 49.5716 922.523 49.4805C923.057 49.3763 923.415 49.1875 923.598 48.9141C924.118 48.4844 924.379 47.0195 924.379 44.5195C924.379 44.1419 924.301 43.8229 924.145 43.5625C923.988 43.2891 923.799 43.0872 923.578 42.957C923.357 42.8138 923.044 42.6966 922.641 42.6055C922.25 42.5013 921.892 42.4362 921.566 42.4102C921.254 42.3711 920.837 42.3255 920.316 42.2734C919.796 42.2214 919.379 42.1758 919.066 42.1367C918.116 42.0326 917.341 41.9349 916.742 41.8438C916.143 41.7396 915.538 41.5898 914.926 41.3945C914.314 41.1992 913.832 40.9583 913.48 40.6719C913.142 40.3854 912.829 40.0143 912.543 39.5586C912.257 39.1029 912.055 38.556 911.938 37.918C911.82 37.2799 911.762 36.5182 911.762 35.6328C911.762 34.6953 911.859 33.901 912.055 33.25C912.25 32.599 912.536 32.0586 912.914 31.6289C913.292 31.1992 913.806 30.8672 914.457 30.6328C915.121 30.3854 915.863 30.2161 916.684 30.125C917.504 30.0208 918.507 29.9688 919.691 29.9688C920.434 29.9688 921.039 29.9818 921.508 30.0078C921.99 30.0208 922.51 30.0664 923.07 30.1445C923.643 30.2096 924.105 30.3073 924.457 30.4375C924.809 30.5677 925.16 30.75 925.512 30.9844C925.876 31.2188 926.156 31.5117 926.352 31.8633C926.547 32.2018 926.703 32.6185 926.82 33.1133C926.951 33.6081 927.016 34.1745 927.016 34.8125L924.398 35.6133C924.346 35.1055 924.294 34.7083 924.242 34.4219C924.203 34.1224 924.105 33.849 923.949 33.6016C923.793 33.3542 923.63 33.1784 923.461 33.0742C923.292 32.9701 922.999 32.8789 922.582 32.8008C922.178 32.7227 921.768 32.6771 921.352 32.6641C920.935 32.651 920.336 32.6445 919.555 32.6445C917.888 32.6445 916.755 32.8138 916.156 33.1523C915.57 33.4779 915.277 34.0182 915.277 34.7734V36.7656C915.277 37.625 915.531 38.1719 916.039 38.4062C916.56 38.6276 917.94 38.8815 920.18 39.168C920.414 39.207 920.59 39.2331 920.707 39.2461C921.605 39.3503 922.315 39.4479 922.836 39.5391C923.37 39.6302 923.93 39.7539 924.516 39.9102C925.102 40.0534 925.544 40.2292 925.844 40.4375C926.156 40.6328 926.462 40.8867 926.762 41.1992C927.074 41.5117 927.296 41.8958 927.426 42.3516C927.569 42.8073 927.68 43.3346 927.758 43.9336C927.849 44.5326 927.895 45.2422 927.895 46.0625ZM948.949 36.7461L945.785 37.2734L945.375 34.5586C945.271 33.9336 945.147 33.5365 945.004 33.3672C944.665 32.9766 943.728 32.7552 942.191 32.7031C941.827 32.6901 941.423 32.6836 940.98 32.6836C939.21 32.6836 938.051 32.7812 937.504 32.9766C936.905 33.0807 936.469 33.6732 936.195 34.7539C935.922 35.8346 935.785 37.1562 935.785 38.7188L935.805 42.0977C935.805 42.5664 935.805 43.2109 935.805 44.0312C935.805 45.099 935.805 45.8542 935.805 46.2969C935.805 46.7266 935.863 47.2214 935.98 47.7812C936.098 48.3281 936.228 48.6732 936.371 48.8164C936.527 48.9466 936.814 49.1029 937.23 49.2852C937.647 49.4674 938.09 49.5651 938.559 49.5781C939.04 49.5911 939.73 49.5977 940.629 49.5977C941.332 49.5977 941.938 49.5716 942.445 49.5195C942.966 49.4674 943.402 49.4089 943.754 49.3438C944.118 49.2656 944.411 49.1419 944.633 48.9727C944.867 48.7904 945.043 48.6276 945.16 48.4844C945.29 48.3411 945.388 48.1198 945.453 47.8203C945.518 47.5078 945.557 47.2409 945.57 47.0195C945.596 46.7982 945.622 46.4661 945.648 46.0234C945.674 45.5677 945.707 45.1836 945.746 44.8711L948.949 45.418C948.871 46.4336 948.78 47.2474 948.676 47.8594C948.585 48.4714 948.422 49.0638 948.188 49.6367C947.966 50.2096 947.68 50.6458 947.328 50.9453C946.99 51.2318 946.514 51.4922 945.902 51.7266C945.303 51.9609 944.6 52.1107 943.793 52.1758C942.999 52.2539 942.003 52.293 940.805 52.293C939.945 52.293 939.171 52.2669 938.48 52.2148C937.803 52.1628 937.185 52.0586 936.625 51.9023C936.065 51.7331 935.577 51.5768 935.16 51.4336C934.743 51.2773 934.372 51.0104 934.047 50.6328C933.734 50.2552 933.467 49.9297 933.246 49.6562C933.038 49.3828 932.862 48.9401 932.719 48.3281C932.576 47.7161 932.465 47.1953 932.387 46.7656C932.309 46.3359 932.25 45.6849 932.211 44.8125C932.172 43.9271 932.146 43.1784 932.133 42.5664C932.133 41.9544 932.133 41.069 932.133 39.9102C932.133 38.8685 932.152 37.9701 932.191 37.2148C932.23 36.4466 932.309 35.7174 932.426 35.0273C932.543 34.3242 932.693 33.7448 932.875 33.2891C933.07 32.8203 933.324 32.3841 933.637 31.9805C933.962 31.5768 934.327 31.2578 934.73 31.0234C935.147 30.7891 935.655 30.5872 936.254 30.418C936.866 30.2487 937.53 30.1315 938.246 30.0664C938.975 30.0013 939.822 29.9688 940.785 29.9688C942.022 29.9688 943.057 30.0339 943.891 30.1641C944.737 30.2812 945.486 30.4831 946.137 30.7695C946.788 31.056 947.302 31.4661 947.68 32C948.057 32.5208 948.35 33.1654 948.559 33.9336C948.767 34.6888 948.897 35.6263 948.949 36.7461ZM962.191 49.5977C964.04 49.5586 965.323 49.4219 966.039 49.1875C966.768 48.9531 967.133 48.4909 967.133 47.8008C967.276 45.9388 967.348 43.7839 967.348 41.3359C967.348 40.5286 967.315 39.3763 967.25 37.8789C967.185 36.3685 967.152 35.2487 967.152 34.5195C967.152 34.2982 967.113 34.0964 967.035 33.9141C966.97 33.7318 966.853 33.582 966.684 33.4648C966.527 33.3346 966.365 33.224 966.195 33.1328C966.039 33.0417 965.811 32.9701 965.512 32.918C965.225 32.8659 964.978 32.8203 964.77 32.7812C964.574 32.7422 964.288 32.7161 963.91 32.7031C963.546 32.6901 963.259 32.6836 963.051 32.6836C962.855 32.6836 962.562 32.6836 962.172 32.6836C961.781 32.6836 961.482 32.6836 961.273 32.6836C961.078 32.6836 960.792 32.6901 960.414 32.7031C960.049 32.7161 959.763 32.7422 959.555 32.7812C959.359 32.8203 959.112 32.8659 958.812 32.918C958.526 32.9701 958.298 33.0417 958.129 33.1328C957.973 33.224 957.81 33.3346 957.641 33.4648C957.484 33.582 957.367 33.7318 957.289 33.9141C957.224 34.0964 957.191 34.2982 957.191 34.5195C957.191 35.2487 957.159 36.3685 957.094 37.8789C957.029 39.3763 956.996 40.5286 956.996 41.3359C956.996 43.7839 957.068 45.9388 957.211 47.8008C957.211 48.4909 957.589 48.9661 958.344 49.2266C959.112 49.474 960.395 49.5977 962.191 49.5977ZM962.152 52.293C960.707 52.293 959.503 52.2344 958.539 52.1172C957.576 52 956.742 51.7461 956.039 51.3555C955.349 50.9518 954.822 50.5286 954.457 50.0859C954.092 49.6302 953.806 48.9206 953.598 47.957C953.389 46.9805 953.259 46.0169 953.207 45.0664C953.168 44.1159 953.148 42.7943 953.148 41.1016C953.148 39.8385 953.161 38.7839 953.188 37.9375C953.227 37.0911 953.305 36.2643 953.422 35.457C953.539 34.6367 953.682 33.9792 953.852 33.4844C954.034 32.9766 954.288 32.5013 954.613 32.0586C954.952 31.6029 955.329 31.2578 955.746 31.0234C956.163 30.7891 956.69 30.5872 957.328 30.418C957.979 30.2357 958.682 30.1185 959.438 30.0664C960.206 30.0013 961.117 29.9688 962.172 29.9688C963.227 29.9688 964.132 30.0013 964.887 30.0664C965.655 30.1185 966.358 30.2357 966.996 30.418C967.647 30.5872 968.181 30.7891 968.598 31.0234C969.014 31.2578 969.385 31.6029 969.711 32.0586C970.049 32.5013 970.303 32.9766 970.473 33.4844C970.655 33.9792 970.805 34.6367 970.922 35.457C971.039 36.2643 971.111 37.0911 971.137 37.9375C971.176 38.7839 971.195 39.8385 971.195 41.1016C971.195 42.7943 971.169 44.1159 971.117 45.0664C971.078 46.0169 970.954 46.9805 970.746 47.957C970.538 48.9206 970.245 49.6302 969.867 50.0859C969.503 50.5417 968.969 50.9648 968.266 51.3555C967.576 51.7461 966.749 52 965.785 52.1172C964.822 52.2344 963.611 52.293 962.152 52.293ZM986.176 30.0859L986.02 33.3477C985.525 33.2826 985.056 33.25 984.613 33.25C983.689 33.25 982.94 33.3411 982.367 33.5234C981.794 33.7057 981.358 34.0182 981.059 34.4609C980.772 34.9036 980.577 35.4115 980.473 35.9844C980.382 36.5443 980.336 37.2995 980.336 38.25C980.336 38.7839 980.355 39.5651 980.395 40.5938C980.447 41.6224 980.473 42.3581 980.473 42.8008V52H976.625V30.5742H980.121L980.512 32.9766C980.915 32.0391 981.527 31.3164 982.348 30.8086C983.168 30.2878 984.151 30.0273 985.297 30.0273C985.583 30.0273 985.876 30.0469 986.176 30.0859ZM1007.27 52H1003.75L1003.38 49.3047C1002.59 51.2969 1000.51 52.293 997.152 52.293C996.254 52.293 995.447 52.2344 994.73 52.1172C994.027 52 993.415 51.7982 992.895 51.5117C992.387 51.2253 991.951 50.9323 991.586 50.6328C991.221 50.3203 990.915 49.8776 990.668 49.3047C990.434 48.7188 990.245 48.1914 990.102 47.7227C989.971 47.2409 989.874 46.5768 989.809 45.7305C989.743 44.8841 989.704 44.1484 989.691 43.5234C989.678 42.8854 989.672 42.026 989.672 40.9453C989.672 39.8906 989.685 38.9792 989.711 38.2109C989.75 37.4427 989.815 36.681 989.906 35.9258C990.01 35.1706 990.141 34.5391 990.297 34.0312C990.466 33.5104 990.688 33.0091 990.961 32.5273C991.234 32.0456 991.56 31.6615 991.938 31.375C992.328 31.0755 992.79 30.8151 993.324 30.5938C993.858 30.3594 994.47 30.1966 995.16 30.1055C995.85 30.0143 996.632 29.9688 997.504 29.9688C999.184 29.9688 1000.49 30.1966 1001.41 30.6523C1002.35 31.0951 1003.02 31.8047 1003.42 32.7812V22.332L1007.27 22.0195V52ZM1003.42 47.0195V35.6328C1003.42 34.5 1003.07 33.7253 1002.37 33.3086C1001.66 32.8789 1000.34 32.6641 998.402 32.6641C996.892 32.6641 995.772 32.7747 995.043 32.9961C994.444 33.1784 994.04 33.7188 993.832 34.6172C993.624 35.5026 993.52 36.7005 993.52 38.2109C993.52 40.4115 993.559 43.4909 993.637 47.4492C993.702 48.3086 994.047 48.888 994.672 49.1875C995.31 49.474 996.553 49.6172 998.402 49.6172C1000.23 49.6172 1001.49 49.4349 1002.21 49.0703C1002.94 48.7057 1003.34 48.0221 1003.42 47.0195Z" fill="white"/>
</svg>
